HIERARCHY
ROOT Hips
{
    OFFSET 0 0 0
    CHANNELS 6 Xposition Yposition Zposition Zrotation Xrotation Yrotation

    JOINT Spine
    {
        OFFSET 0 10 0
        CHANNELS 3 Zrotation Xrotation Yrotation

        JOINT Spine1
        {
            OFFSET 0 10 0
            CHANNELS 3 Zrotation Xrotation Yrotation

            JOINT Spine2
            {
                OFFSET 0 10 0
                CHANNELS 3 Zrotation Xrotation Yrotation

                JOINT Neck
                {
                    OFFSET 0 10 0
                    CHANNELS 3 Zrotation Xrotation Yrotation

                    JOINT Head
                    {
                        OFFSET 0 5 0
                        CHANNELS 3 Zrotation Xrotation Yrotation
                    }
                }
            }
        }
    }

    JOINT LeftUpLeg
    {
        OFFSET 5 0 0
        CHANNELS 3 Zrotation Xrotation Yrotation

        JOINT LeftLeg
        {
            OFFSET 0 -20 0
            CHANNELS 3 Zrotation Xrotation Yrotation

            JOINT LeftFoot
            {
                OFFSET 0 -20 5
                CHANNELS 3 Zrotation Xrotation Yrotation
            }
        }
    }

    JOINT RightUpLeg
    {
        OFFSET -5 0 0
        CHANNELS 3 Zrotation Xrotation Yrotation

        JOINT RightLeg
        {
            OFFSET 0 -20 0
            CHANNELS 3 Zrotation Xrotation Yrotation

            JOINT RightFoot
            {
                OFFSET 0 -20 5
                CHANNELS 3 Zrotation Xrotation Yrotation
            }
        }
    }
}

MOTION
Frames: 22
Frame Time: 0.033198
59.150168 0.008783 -46.820405 0.000000 0.000000 0.000000 63.843704 80.203233 0.000000 4.123389 20.444111 0.000000 0.000000 0.000000 0.000000 -28.958928 80.325410 0.000000 -1.361681 21.953843 0.000000 0.000000 0.000000 0.000000 0.000000 0.000000 0.000000 0.000000 0.000000 0.000000 0.000000 0.000000 0.000000 0.000000 0.000000 0.000000 0.000000 0.000000 0.000000
59.337622 0.008798 -46.834633 0.000000 0.000000 0.000000 61.808005 80.441387 0.000000 4.041278 19.307301 0.000000 0.000000 0.000000 0.000000 -29.346637 79.147628 0.000000 -1.342892 21.045957 0.000000 0.000000 0.000000 0.000000 0.000000 0.000000 0.000000 0.000000 0.000000 0.000000 0.000000 0.000000 0.000000 0.000000 0.000000 0.000000 0.000000 0.000000 0.000000
59.650743 0.008817 -46.824354 0.000000 0.000000 0.000000 60.704794 80.703014 0.000000 4.018781 19.435471 0.000000 0.000000 0.000000 0.000000 -34.118388 78.231974 0.000000 -1.325186 21.193737 0.000000 0.000000 0.000000 0.000000 0.000000 0.000000 0.000000 0.000000 0.000000 0.000000 0.000000 0.000000 0.000000 0.000000 0.000000 0.000000 0.000000 0.000000 0.000000
60.019431 0.009302 -46.801187 0.000000 0.000000 0.000000 61.772265 81.356667 0.000000 3.995159 19.908899 0.000000 0.000000 0.000000 0.000000 -41.682009 77.519889 0.000000 -1.012968 21.179798 0.000000 0.000000 0.000000 0.000000 0.000000 0.000000 0.000000 0.000000 0.000000 0.000000 0.000000 0.000000 0.000000 0.000000 0.000000 0.000000 0.000000 0.000000 0.000000
60.492676 0.009246 -46.807624 0.000000 0.000000 0.000000 79.734201 82.844165 0.000000 3.731721 19.853748 0.000000 0.000000 0.000000 0.000000 -51.346852 76.817361 0.000000 -0.237824 21.198394 0.000000 0.000000 0.000000 0.000000 0.000000 0.000000 0.000000 0.000000 0.000000 0.000000 0.000000 0.000000 0.000000 0.000000 0.000000 0.000000 0.000000 0.000000 0.000000
60.884601 0.009189 -46.827471 0.000000 0.000000 0.000000 110.450227 82.863024 0.000000 3.638554 19.912832 0.000000 0.000000 0.000000 0.000000 -69.689281 77.314130 0.000000 0.444749 21.059329 0.000000 0.000000 0.000000 0.000000 0.000000 0.000000 0.000000 0.000000 0.000000 0.000000 0.000000 0.000000 0.000000 0.000000 0.000000 0.000000 0.000000 0.000000 0.000000
61.267325 0.009008 -46.910062 0.000000 0.000000 0.000000 105.289836 83.634516 0.000000 3.663710 19.840948 0.000000 0.000000 0.000000 0.000000 -71.061864 76.096133 0.000000 0.841429 20.950636 0.000000 0.000000 0.000000 0.000000 0.000000 0.000000 0.000000 0.000000 0.000000 0.000000 0.000000 0.000000 0.000000 0.000000 0.000000 0.000000 0.000000 0.000000 0.000000
61.567011 0.009163 -47.032286 0.000000 0.000000 0.000000 54.511898 83.462042 0.000000 3.460022 19.096095 0.000000 0.000000 0.000000 0.000000 -58.074981 75.731606 0.000000 0.411789 20.746001 0.000000 0.000000 0.000000 0.000000 0.000000 0.000000 0.000000 0.000000 0.000000 0.000000 0.000000 0.000000 0.000000 0.000000 0.000000 0.000000 0.000000 0.000000 0.000000
61.750236 0.009720 -47.076134 0.000000 0.000000 0.000000 56.786590 84.006089 0.000000 3.256030 18.572295 0.000000 0.000000 0.000000 0.000000 -50.806000 76.520468 0.000000 -0.369238 20.449482 0.000000 0.000000 0.000000 0.000000 0.000000 0.000000 0.000000 0.000000 0.000000 0.000000 0.000000 0.000000 0.000000 0.000000 0.000000 0.000000 0.000000 0.000000 0.000000
61.947915 0.010061 -47.100405 0.000000 0.000000 0.000000 53.867077 83.829435 0.000000 2.943726 18.130657 0.000000 0.000000 0.000000 0.000000 -44.195365 75.862874 0.000000 -0.933419 20.430383 0.000000 0.000000 0.000000 0.000000 0.000000 0.000000 0.000000 0.000000 0.000000 0.000000 0.000000 0.000000 0.000000 0.000000 0.000000 0.000000 0.000000 0.000000 0.000000
62.149647 0.009810 -47.107995 0.000000 0.000000 0.000000 52.160951 84.174161 0.000000 2.830630 18.368666 0.000000 0.000000 0.000000 0.000000 -45.079083 75.745580 0.000000 -1.149198 20.569734 0.000000 0.000000 0.000000 0.000000 0.000000 0.000000 0.000000 0.000000 0.000000 0.000000 0.000000 0.000000 0.000000 0.000000 0.000000 0.000000 0.000000 0.000000 0.000000
62.303919 0.009574 -47.092737 0.000000 0.000000 0.000000 62.178249 85.256614 0.000000 2.776471 18.443620 0.000000 0.000000 0.000000 0.000000 -48.443582 76.272765 0.000000 -1.340472 20.570454 0.000000 0.000000 0.000000 0.000000 0.000000 0.000000 0.000000 0.000000 0.000000 0.000000 0.000000 0.000000 0.000000 0.000000 0.000000 0.000000 0.000000 0.000000 0.000000
62.513310 0.009063 -47.097448 0.000000 0.000000 0.000000 62.905498 86.076168 0.000000 2.690267 18.392324 0.000000 0.000000 0.000000 0.000000 -49.064400 75.936186 0.000000 -1.539566 20.637702 0.000000 0.000000 0.000000 0.000000 0.000000 0.000000 0.000000 0.000000 0.000000 0.000000 0.000000 0.000000 0.000000 0.000000 0.000000 0.000000 0.000000 0.000000 0.000000
62.651369 0.009230 -47.078261 0.000000 0.000000 0.000000 61.013357 86.587887 0.000000 2.655462 18.252960 0.000000 0.000000 0.000000 0.000000 -49.079452 75.724152 0.000000 -1.687967 20.682324 0.000000 0.000000 0.000000 0.000000 0.000000 0.000000 0.000000 0.000000 0.000000 0.000000 0.000000 0.000000 0.000000 0.000000 0.000000 0.000000 0.000000 0.000000 0.000000
62.827033 0.009352 -47.100051 0.000000 0.000000 0.000000 61.705449 86.824340 0.000000 2.414035 17.933448 0.000000 0.000000 0.000000 0.000000 -47.867601 75.272637 0.000000 -1.869210 20.584069 0.000000 0.000000 0.000000 0.000000 0.000000 0.000000 0.000000 0.000000 0.000000 0.000000 0.000000 0.000000 0.000000 0.000000 0.000000 0.000000 0.000000 0.000000 0.000000
62.944889 0.009376 -47.111541 0.000000 0.000000 0.000000 71.942514 87.177568 0.000000 2.299456 17.824271 0.000000 0.000000 0.000000 0.000000 -48.877007 75.224413 0.000000 -1.931913 20.320348 0.000000 0.000000 0.000000 0.000000 0.000000 0.000000 0.000000 0.000000 0.000000 0.000000 0.000000 0.000000 0.000000 0.000000 0.000000 0.000000 0.000000 0.000000 0.000000
63.135132 0.009448 -47.122419 0.000000 0.000000 0.000000 51.340195 86.606165 0.000000 2.038040 17.546369 0.000000 0.000000 0.000000 0.000000 -48.092599 74.733608 0.000000 -2.070548 20.161047 0.000000 0.000000 0.000000 0.000000 0.000000 0.000000 0.000000 0.000000 0.000000 0.000000 0.000000 0.000000 0.000000 0.000000 0.000000 0.000000 0.000000 0.000000 0.000000
63.320795 0.009432 -47.126628 0.000000 0.000000 0.000000 45.439244 86.883241 0.000000 1.982244 17.589820 0.000000 0.000000 0.000000 0.000000 -49.020927 74.261888 0.000000 -2.183775 20.480545 0.000000 0.000000 0.000000 0.000000 0.000000 0.000000 0.000000 0.000000 0.000000 0.000000 0.000000 0.000000 0.000000 0.000000 0.000000 0.000000 0.000000 0.000000 0.000000
63.501212 0.009140 -47.176607 0.000000 0.000000 0.000000 45.897532 87.299406 0.000000 1.851903 17.602599 0.000000 0.000000 0.000000 0.000000 -50.054801 73.952993 0.000000 -2.330590 20.970920 0.000000 0.000000 0.000000 0.000000 0.000000 0.000000 0.000000 0.000000 0.000000 0.000000 0.000000 0.000000 0.000000 0.000000 0.000000 0.000000 0.000000 0.000000 0.000000
63.594079 0.009226 -47.176965 0.000000 0.000000 0.000000 26.729115 86.192620 0.000000 1.886307 17.875650 0.000000 0.000000 0.000000 0.000000 -48.208494 73.677438 0.000000 -2.575147 21.571986 0.000000 0.000000 0.000000 0.000000 0.000000 0.000000 0.000000 0.000000 0.000000 0.000000 0.000000 0.000000 0.000000 0.000000 0.000000 0.000000 0.000000 0.000000 0.000000
63.740304 0.009147 -47.222948 0.000000 0.000000 0.000000 36.412174 86.605323 0.000000 1.592590 17.911276 0.000000 0.000000 0.000000 0.000000 -48.889346 73.487118 0.000000 -2.713543 21.923673 0.000000 0.000000 0.000000 0.000000 0.000000 0.000000 0.000000 0.000000 0.000000 0.000000 0.000000 0.000000 0.000000 0.000000 0.000000 0.000000 0.000000 0.000000 0.000000
63.797060 0.009254 -47.217548 0.000000 0.000000 0.000000 35.743506 86.725203 0.000000 1.609301 18.044286 0.000000 0.000000 0.000000 0.000000 -47.620811 73.174272 0.000000 -2.738558 21.897827 0.000000 0.000000 0.000000 0.000000 0.000000 0.000000 0.000000 0.000000 0.000000 0.000000 0.000000 0.000000 0.000000 0.000000 0.000000 0.000000 0.000000 0.000000 0.000000
